<svg width="66" height="72" viewBox="0 0 66 72" fill="none" xmlns="http://www.w3.org/2000/svg">
<path d="M30.344 0C36.232 0 41.048 0.816 44.792 2.448C48.536 4.08 51.288 6.4 53.048 9.408C54.84 12.416 55.736 16 55.736 20.16C55.736 24.32 54.84 27.84 53.048 30.72C51.288 33.568 48.536 35.744 44.792 37.248C41.048 38.72 36.232 39.456 30.344 39.456H20.12V71.808H28.712V72H0.727997V71.808H9.32V0.192003H0.727997V0H30.344ZM20.12 39.264H29.816C32.056 39.264 34.024 38.688 35.72 37.536C37.448 36.352 38.888 34.816 40.04 32.928C41.192 31.008 42.056 28.944 42.632 26.736C43.24 24.496 43.544 22.304 43.544 20.16C43.544 18.016 43.24 15.792 42.632 13.488C42.056 11.152 41.192 8.976 40.04 6.96C38.888 4.944 37.448 3.312 35.72 2.064C34.024 0.816004 32.056 0.192003 29.816 0.192003H20.12V39.264Z" fill="black"/>
<path d="M66 20C66 28.2843 59.2843 35 51 35C42.7157 35 36 28.2843 36 20C36 11.7157 42.7157 5.00001 51 5.00001C59.2843 5.00001 66 11.7157 66 20Z" fill="#6FBBED"/>
</svg>
